<svg width="62" height="83" viewBox="0 0 62 83" fill="none" xmlns="http://www.w3.org/2000/svg">
<path d="M58.3947 66.5198L57.8783 24.968C57.8445 22.2467 55.6403 20.0522 52.9188 20.0303L41.3137 19.9372V10.7094C41.3137 4.80427 36.5096 0 30.6043 0C24.699 0 19.8949 4.80427 19.8949 10.7094V19.9372H7.81389C5.05247 19.9372 2.81389 22.1758 2.81389 24.9372V66.5198L0.997408 77.1585C0.476036 80.212 2.82835 83 5.92608 83H55.2825C58.3802 83 60.7326 80.212 60.2112 77.1585L58.3947 66.5198ZM24.7582 10.7094C24.7582 7.48589 27.3806 4.86328 30.6043 4.86328C33.828 4.86328 36.4504 7.48589 36.4504 10.7094V19.9372H24.758L24.7582 10.7094ZM9.3198 78.1367C7.46115 78.1367 6.04976 76.4639 6.3626 74.6318L7.67734 66.932V27.8005C7.67734 26.1436 9.02048 24.8005 10.6773 24.8005H50.5314C52.1883 24.8005 53.5314 26.1436 53.5314 27.8005V66.5083C53.5314 66.7903 53.5553 67.0718 53.6027 67.3498L54.8461 74.6318C55.1589 76.4639 53.7475 78.1367 51.8888 78.1367H9.3198Z" fill="#96DEEC"/>
<path d="M37.6875 38.7067C36.794 35.6376 33.9579 33.3877 30.6043 33.3877C27.2507 33.3877 24.4146 35.6376 23.5211 38.7067C20.9617 39.9296 18.7687 41.79 17.1296 44.1409C15.2054 46.9011 14.1881 50.1443 14.1881 53.5197C14.1881 62.5716 21.5524 69.9359 30.6043 69.9359C39.6562 69.9359 47.0205 62.5716 47.0205 53.5197C47.0205 50.1443 46.0034 46.9011 44.079 44.1409C42.4399 41.7898 40.2469 39.9296 37.6875 38.7067ZM28.0898 40.7655C28.0898 39.3789 29.2178 38.251 30.6043 38.251C31.9908 38.251 33.1188 39.3789 33.1188 40.7655V44.0243H30.6043C29.2178 44.0243 28.0898 42.8964 28.0898 41.5099V40.7655ZM30.6043 65.0726C24.234 65.0726 19.0514 59.89 19.0514 53.5197C19.0514 49.8254 20.8572 46.3769 23.7472 44.227C24.8317 46.9538 27.4955 48.8875 30.6041 48.8875H33.7349C36.0805 48.8875 37.9819 46.986 37.9819 44.6405C40.5658 46.8044 42.157 50.0534 42.157 53.5197C42.1572 59.89 36.9745 65.0726 30.6043 65.0726Z" fill="#96DEEC"/>
<path d="M30.6043 55.3462C29.7865 55.3462 29.1212 54.6809 29.1212 53.863H24.2579C24.2579 57.3625 27.1049 60.2095 30.6043 60.2095C34.1038 60.2095 36.9507 57.3625 36.9507 53.863H32.0875C32.0875 54.6809 31.4222 55.3462 30.6043 55.3462Z" fill="#96DEEC"/>
</svg>
